<?xml version="1.0" encoding="UTF-8" standalone="no"?>
<!-- Created with Inkscape (http://www.inkscape.org/) -->
<svg xmlns:rdf="http://www.w3.org/1999/02/22-rdf-syntax-ns#" xmlns="http://www.w3.org/2000/svg" xmlns:cc="http://web.resource.org/cc/" xmlns:dc="http://purl.org/dc/elements/1.1/" xmlns:svg="http://www.w3.org/2000/svg" xmlns:inkscape="http://www.inkscape.org/namespaces/inkscape" xmlns:sodipodi="http://sodipodi.sourceforge.net/DTD/sodipodi-0.dtd" xmlns:ns1="http://sozi.baierouge.fr" xmlns:xlink="http://www.w3.org/1999/xlink" id="svg2962" viewBox="0 0 168 144" version="1.1" inkscape:version="0.91 r13725">
  <path id="path3050" style="fill:#000000" d="m59.064 125.93c-1.4496-0.96211-4.0117-1.7614-5.6936-1.7762-7.4145-0.0652-20.62-7.8261-25.953-15.253-4.739-6.599-5.4664-9.0854-5.4409-18.598 0.06345-23.623 10.572-42.078 34.817-61.144 1.1672-0.91787 3.2097-1.6688 4.539-1.6688s3.0099-0.593 3.7346-1.3178c0.72478-0.72478 1.8449-1.384 2.4891-1.465 0.64425-0.08098 3.3972-1.0693 6.1176-2.1963 7.4546-3.0882 16.785-2.4748 25.338 1.6658 9.1574 4.433 12.629 9.192 12.397 16.993-0.21291 7.143-3.1478 9.5354-3.1478 2.5661 0-3.3405-1.8234-6.7904-5.3944-10.207-4.7634-4.5569-6.5814-5.1388-15.541-4.9747-6.9422 0.12719-13.146 1.6073-19.643 4.6865-9.3775 4.4442-20.889 13.48-20.948 16.443-0.01669 0.83911-1.9531 3.3489-4.3031 5.5773-9.462 8.9723-14.589 34.928-9.0209 45.672 3.1888 6.1529 12.015 13.976 14.742 13.067 1.1698-0.38993 2.1269 0.19425 2.1269 1.2982 0 1.1039 0.60586 1.6327 1.3464 1.175 0.7405-0.45765 5.2868-0.0605 10.103 0.88265 14.116 2.7642 35.572 1.8533 54.44-2.3113 9.6637-2.1331 17.966-4.4389 18.449-5.124 0.48319-0.6851 2.8552-1.5248 5.2711-1.866 2.4159-0.34118 4.9426-1.3881 5.6148-2.3265 0.67223-0.93838 1.8112-1.1172 2.531-0.39742 3.5594 3.5594-15.037 12.162-38.894 17.992-16.922 4.1353-45.529 5.6244-50.075 2.6066z"/>
  <metadata>
    <rdf:RDF>
      <cc:Work>
        <dc:format>image/svg+xml</dc:format>
        <dc:type rdf:resource="http://purl.org/dc/dcmitype/StillImage"/>
        <cc:license rdf:resource="http://creativecommons.org/licenses/publicdomain/"/>
        <dc:publisher>
          <cc:Agent rdf:about="http://openclipart.org/">
            <dc:title>Openclipart</dc:title>
          </cc:Agent>
        </dc:publisher>
        <dc:title>Letter C</dc:title>
        <dc:date>2010-04-22T06:54:33</dc:date>
        <dc:description>These are some quick sketches and doodles I made in my notebook on a flight. These are mostly shit, but hey, lets see if useful!</dc:description>
        <dc:source>https://openclipart.org/detail/49981/letter-c-by-rejon</dc:source>
        <dc:creator>
          <cc:Agent>
            <dc:title>rejon</dc:title>
          </cc:Agent>
        </dc:creator>
        <dc:subject>
          <rdf:Bag>
            <rdf:li>black</rdf:li>
            <rdf:li>bw</rdf:li>
            <rdf:li>drawings</rdf:li>
            <rdf:li>fast</rdf:li>
            <rdf:li>rapid</rdf:li>
            <rdf:li>rejon</rdf:li>
            <rdf:li>sketch</rdf:li>
            <rdf:li>sketchbook</rdf:li>
            <rdf:li>unchecked</rdf:li>
            <rdf:li>white</rdf:li>
          </rdf:Bag>
        </dc:subject>
      </cc:Work>
      <cc:License rdf:about="http://creativecommons.org/licenses/publicdomain/">
        <cc:permits rdf:resource="http://creativecommons.org/ns#Reproduction"/>
        <cc:permits rdf:resource="http://creativecommons.org/ns#Distribution"/>
        <cc:permits rdf:resource="http://creativecommons.org/ns#DerivativeWorks"/>
      </cc:License>
    </rdf:RDF>
  </metadata>
</svg>
